<?xml version="1.0" encoding="UTF-8"?>
<svg version="1.1" xmlns="http://www.w3.org/2000/svg" width="225" height="225">
<path d="M0 0 C74.25 0 148.5 0 225 0 C225 74.25 225 148.5 225 225 C150.75 225 76.5 225 0 225 C0 150.75 0 76.5 0 0 Z " fill="#FEFEFE" transform="translate(0,0)"/>
<path d="M0 0 C3.0559117 3.64913561 5.5412238 7.40097612 7.94921875 11.50390625 C8.31889267 12.130728 8.68856659 12.75754974 9.06944275 13.40336609 C9.86416925 14.75148328 10.65723643 16.10057978 11.4487915 17.45056152 C13.57309955 21.07240469 15.71093442 24.68625244 17.84765625 28.30078125 C18.28176819 29.03573822 18.71588013 29.77069519 19.16314697 30.52792358 C23.2659204 37.46663201 27.43360185 44.36455338 31.625 51.25 C31.96924011 51.81566681 32.31348022 52.38133362 32.66815186 52.96414185 C34.40615403 55.81982296 36.14529168 58.67480965 37.88525391 61.52929688 C40.06544237 65.10648331 42.24224315 68.68572273 44.41796875 72.265625 C44.78354889 72.8670784 45.14912903 73.4685318 45.52578735 74.08821106 C47.33184315 77.06035625 49.13621832 80.03350369 50.9375 83.00854492 C54.19338744 88.38508648 57.46047724 93.75360845 60.76953125 99.09765625 C61.34018311 100.02707031 61.91083496 100.95648438 62.4987793 101.9140625 C63.55325103 103.6313586 64.61546602 105.34393343 65.68676758 107.05078125 C66.1433374 107.7984375 66.59990723 108.54609375 67.0703125 109.31640625 C67.47008301 109.96037354 67.86985352 110.60434082 68.28173828 111.26782227 C69 113 69 113 68 116 C65.89648438 117.47949219 65.89648438 117.47949219 63.09375 119.046875 C62.0519458 119.63710449 61.0101416 120.22733398 59.93676758 120.83544922 C58.80263428 121.46725098 57.66850098 122.09905273 56.5 122.75 C54.11594253 124.09708618 51.73581155 125.45105091 49.35546875 126.8046875 C48.74539474 127.15052887 48.13532074 127.49637024 47.50675964 127.85269165 C41.21517632 131.42666951 35.00928966 135.1394007 28.8125 138.875 C27.77577148 139.49665039 26.73904297 140.11830078 25.67089844 140.75878906 C21.17915232 143.45672068 16.70359117 146.17228482 12.27734375 148.9765625 C11.23839966 149.6264917 11.23839966 149.6264917 10.1784668 150.28955078 C8.40866333 151.40041109 6.64910542 152.52755094 4.890625 153.65625 C2 155 2 155 -0.3515625 155.03515625 C-4.39276629 153.45562969 -7.94738359 151.2239925 -11.625 148.9375 C-13.41603578 147.84271722 -15.20773931 146.74902634 -17 145.65625 C-17.96292969 145.06714844 -18.92585938 144.47804687 -19.91796875 143.87109375 C-24.88074188 140.85820613 -29.8838643 137.91371193 -34.884552 134.96438599 C-45.98750497 128.41350551 -57.02878552 121.76916763 -68 115 C-66.54589791 111.07211802 -64.69909033 107.58532755 -62.578125 103.9765625 C-62.07378937 103.11590935 -62.07378937 103.11590935 -61.55926514 102.23786926 C-60.45991374 100.36468653 -59.35522175 98.4947242 -58.25 96.625 C-57.47648621 95.31132421 -56.70304962 93.99760297 -55.9296875 92.68383789 C-49.66310397 82.05533095 -43.27218053 71.504951 -36.82617188 60.984375 C-33.45553649 55.47599974 -30.10229946 49.9570452 -26.75 44.4375 C-26.226978 43.5766127 -26.226978 43.5766127 -25.69338989 42.69833374 C-17.07011409 28.50092234 -8.53188862 14.25245741 0 0 Z " fill="#333333" transform="translate(112,0)"/>
<path d="M0 0 C7.6592891 4.10650965 15.19539309 8.39733152 22.68408203 12.80670166 C24.54680636 13.90253602 26.41187539 14.99429354 28.27734375 16.08544922 C34.15171467 19.52655809 40.00964221 22.99008781 45.8182373 26.54135132 C48.28533771 28.04947717 50.75825463 29.54793321 53.23120117 31.04644775 C54.40394521 31.76154644 55.57344066 32.48200203 56.73950195 33.20794678 C58.36002994 34.21665589 59.9922871 35.2064477 61.625 36.1953125 C62.54539063 36.76266113 63.46578125 37.33000977 64.4140625 37.91455078 C67.5735607 39.24075254 68.78680837 39.11516651 72 38 C73.99873197 36.98669828 75.95706782 35.89205068 77.8828125 34.74609375 C78.44655075 34.41333435 79.010289 34.08057495 79.59111023 33.73773193 C81.43979288 32.64433269 83.28228981 31.54092941 85.125 30.4375 C86.41324509 29.67354237 87.70190668 28.91028667 88.9909668 28.14770508 C92.33301007 26.1683524 95.67006163 24.18075778 99.00543213 22.19018555 C104.02430559 19.19535607 109.04786615 16.20841287 114.07244873 13.22317505 C115.77219246 12.21149097 117.46938117 11.19551808 119.16650391 10.17944336 C124.68698348 6.8895509 130.20307997 3.77608836 136 1 C134.62238792 3.90851866 133.04802065 6.50046644 131.19921875 9.1328125 C130.64097412 9.92953369 130.08272949 10.72625488 129.50756836 11.54711914 C128.60663452 12.82317017 128.60663452 12.82317017 127.6875 14.125 C127.06302979 15.01372803 126.43855957 15.90245605 125.79516602 16.81811523 C121.19747747 23.34556888 116.52589645 29.81712686 111.82910156 36.2734375 C107.92906638 41.65638478 104.16459042 47.12125393 100.4375 52.625 C95.9838157 59.19866199 91.36057038 65.59408181 86.5456543 71.90673828 C80.37860748 80.04670658 74.70038691 88.52990221 69 97 C64.84498386 93.28551569 62.00894565 88.7871616 58.9375 84.1875 C54.87258889 78.17044834 50.76341958 72.20762041 46.4375 66.375 C40.48804629 58.34550662 34.74267503 50.17811828 29 42 C22.7109461 33.05130356 16.39478627 24.12356766 10 15.25 C9.45996338 14.49920166 8.91992676 13.74840332 8.36352539 12.97485352 C6.18003958 9.95275517 3.99305327 6.99154509 1.625 4.109375 C0 2 0 2 0 0 Z " fill="#8B8B8B" transform="translate(44,128)"/>
<path d="M0 0 C0.33 0 0.66 0 1 0 C1 27.39 1 54.78 1 83 C-17.3610995 92.18054975 -17.3610995 92.18054975 -23.91015625 95.03515625 C-24.6509996 95.36237167 -25.39184296 95.6895871 -26.15513611 96.02671814 C-28.4559884 97.04233293 -30.75904786 98.05279772 -33.0625 99.0625 C-36.11685673 100.40535536 -39.16991246 101.75113908 -42.22265625 103.09765625 C-42.95795563 103.42053619 -43.693255 103.74341614 -44.45083618 104.07608032 C-48.12333981 105.69599263 -51.77094548 107.35327451 -55.39013672 109.08935547 C-56.08272079 109.42051865 -56.77530487 109.75168182 -57.48887634 110.09288025 C-58.79732997 110.72240415 -60.10251555 111.35878042 -61.40382385 112.00294495 C-62.90894861 112.72747232 -64.45209329 113.37204677 -66 114 C-66.66 113.67 -67.32 113.34 -68 113 C-57.6964519 95.5844584 -47.35200391 78.19891217 -36.79394531 60.93603516 C-33.79493696 56.02775066 -30.80600985 51.11334312 -27.81939697 46.19750977 C-27.11043641 45.03070498 -26.40125112 43.86403671 -25.6918335 42.69750977 C-21.41621419 35.66597685 -17.16799114 28.61891537 -12.953125 21.55078125 C-12.32938995 20.50602882 -12.32938995 20.50602882 -11.6930542 19.44017029 C-9.66555225 16.04405242 -7.64160178 12.64591947 -5.62402344 9.24389648 C-4.89534286 8.02187689 -4.16650996 6.79994812 -3.4375 5.578125 C-2.79683594 4.49950195 -2.15617187 3.42087891 -1.49609375 2.30957031 C-1.00238281 1.54741211 -0.50867188 0.78525391 0 0 Z " fill="#8A8A8A" transform="translate(112,0)"/>
<path d="M0 0 C0 23.43 0 46.86 0 71 C-12.39103139 64.24125561 -12.39103139 64.24125561 -17.5390625 61.22265625 C-18.1000061 60.89419205 -18.66094971 60.56572784 -19.2388916 60.22731018 C-21.0354422 59.17437039 -22.83038327 58.11873203 -24.625 57.0625 C-25.24485779 56.69815857 -25.86471558 56.33381714 -26.50335693 55.95843506 C-31.00574716 53.31155268 -35.50363984 50.65710984 -40 48 C-40.6202002 47.63384583 -41.24040039 47.26769165 -41.87939453 46.89044189 C-45.96632587 44.47706636 -50.04717643 42.05373466 -54.125 39.625 C-55.70595459 38.68926147 -55.70595459 38.68926147 -57.31884766 37.73461914 C-58.28870605 37.15446045 -59.25856445 36.57430176 -60.2578125 35.9765625 C-61.1048877 35.47205566 -61.95196289 34.96754883 -62.82470703 34.44775391 C-64.82429423 33.11693998 -66.38286241 31.76540253 -68 30 C-30.41559463 12.56600671 -30.41559463 12.56600671 -13.1875 4.875 C-12.06947998 4.37323242 -10.95145996 3.87146484 -9.79956055 3.35449219 C-8.78676025 2.90493164 -7.77395996 2.45537109 -6.73046875 1.9921875 C-5.42178833 1.40993408 -5.42178833 1.40993408 -4.08666992 0.81591797 C-2 0 -2 0 0 0 Z " fill="#383838" transform="translate(112,84)"/>
<path d="M0 0 C10.12407765 3.37469255 10.12407765 3.37469255 13.49975586 4.95776367 C14.26182846 5.31210983 15.02390106 5.66645599 15.80906677 6.03153992 C16.60297318 6.40656143 17.39687958 6.78158295 18.21484375 7.16796875 C19.06945694 7.56647537 19.92407013 7.96498199 20.80458069 8.37556458 C23.51773364 9.64160794 26.22776138 10.91416758 28.9375 12.1875 C32.48716796 13.85004362 36.03816665 15.50972197 39.58984375 17.16796875 C40.45467377 17.57216034 41.31950378 17.97635193 42.21054077 18.39279175 C50.75688391 22.37550597 59.36829203 26.20653079 68 30 C65.462565 32.84757797 62.60104225 34.54577377 59.3125 36.44921875 C58.74588654 36.77914825 58.17927307 37.10907776 57.5954895 37.44900513 C55.73270441 38.53265651 53.8663381 39.6099815 52 40.6875 C50.04074062 41.82555053 48.08248733 42.96531865 46.1242981 44.10520935 C44.77814109 44.88873294 43.43168144 45.67173677 42.08493042 46.45423889 C35.0728139 50.53079577 28.09705009 54.66790875 21.125 58.8125 C17.08623773 61.21328737 13.04513448 63.60996597 9 66 C8.26233398 66.44005371 7.52466797 66.88010742 6.76464844 67.33349609 C2.22984136 70 2.22984136 70 0 70 C0 46.9 0 23.8 0 0 Z " fill="#131313" transform="translate(113,84)"/>
<path d="M0 0 C0 3.39916168 -0.46166364 3.99468909 -2.421875 6.6328125 C-2.946604 7.34767822 -3.47133301 8.06254395 -4.01196289 8.79907227 C-4.58551514 9.56662842 -5.15906738 10.33418457 -5.75 11.125 C-6.95266253 12.7611019 -8.15446639 14.39783529 -9.35546875 16.03515625 C-9.96696777 16.86547363 -10.5784668 17.69579102 -11.20849609 18.55126953 C-13.87101946 22.19055944 -16.47027886 25.8729556 -19.0625 29.5625 C-19.79883667 30.60796997 -19.79883667 30.60796997 -20.55004883 31.67456055 C-22.03434034 33.78235671 -23.51736549 35.89103804 -25 38 C-31.59843465 47.3858922 -38.23583618 56.73872095 -44.97949219 66.02099609 C-47.98327391 70.16765813 -50.94405938 74.34016785 -53.86328125 78.546875 C-54.50152832 79.46621826 -55.13977539 80.38556152 -55.79736328 81.33276367 C-57.03797845 83.12446068 -58.27476477 84.91881618 -59.50732422 86.71606445 C-60.34481201 87.92588989 -60.34481201 87.92588989 -61.19921875 89.16015625 C-61.69252686 89.87824463 -62.18583496 90.59633301 -62.6940918 91.33618164 C-64 93 -64 93 -66 94 C-66.38167362 86.3335819 -66.64350021 78.66962106 -66.82397461 70.99584961 C-66.89922 68.38879902 -67.00145383 65.78237771 -67.1315918 63.17749023 C-68.15403182 42.17937881 -68.15403182 42.17937881 -64.64950562 37.00665283 C-61.21703251 33.84894429 -57.27383243 32.20192405 -52.90707397 30.69747925 C-50.21575981 29.71317775 -47.91048217 28.26427766 -45.49609375 26.734375 C-43.81021519 25.73904222 -42.12401519 24.74425369 -40.4375 23.75 C-38.55987549 22.64196156 -36.68227198 21.53388752 -34.8046875 20.42578125 C-33.85561523 19.86584473 -32.90654297 19.3059082 -31.92871094 18.72900391 C-28.93313668 16.96052634 -25.93901873 15.1896065 -22.9453125 13.41796875 C-21.95990479 12.83499023 -20.97449707 12.25201172 -19.95922852 11.65136719 C-18.07929706 10.53909421 -16.19956509 9.42648397 -14.32006836 8.31347656 C-9.56816586 5.50315881 -4.80177751 2.72427377 0 0 Z " fill="#3B3B3A" transform="translate(179,129)"/>
</svg>
